<svg xmlns="http://www.w3.org/2000/svg" width="81.318" height="112.464"><g data-name="Group 35"><g data-name="Group 34"><path data-name="Path 28" d="M2.065 3.822l.316.107a64.9 64.9 0 0138.686 28.362 6.276 6.276 0 004.038-1.3c3.75-2.88-1.066-11.314-11.433-18.943C23.925 4.878 10.94 1.347 2.065 3.822z" fill="#47a01a"/><path data-name="Path 29" d="M42.586 43.323a28.829 28.829 0 00-4.464-9.266c-6.227.311-12.069.17-22.3-3.16 6.215 10.361 18.283 13.51 26.764 12.426z" fill="#003a85"/><path data-name="Path 30" d="M65.14 27.139a61.892 61.892 0 00-8.785-7.01c2.487.546 22.369-.628 14.664-18.4 1.592 1.059 9.325 8.556 4.5 16.98-.997 1.744-2.645 4.777-10.379 8.43z" fill="#47a01a"/><path data-name="Path 31" d="M70.814.927c4.808 2.828 9.807 10.5 5.952 17.914-2.122 4.081-5.072 6.557-10.576 9.4a37.308 37.308 0 014.389 5.657 24.635 24.635 0 0010.304-14.549C82.34 13.908 80.483 4.186 70.409 0c.092.183.35.803.405.927z" fill="#003a85"/></g><path data-name="Path 32" d="M58.545 60.592c-.956-2.354-2.242-5.755-1.9-9.288.187-2.448 1.061-3.516 2.26-3.886 1.825-.562 3.416.364 3.416 2.149a2.713 2.713 0 01-2.837 2.537c.178 1.675 3.378 3.461 6.778 1.831 4.138-1.981 6-10.409-.176-19.367-6.09-8.831-11.766-15.128-22.738-22.947C31.164 2.94 14.121-2.801.002 2.758a10.187 10.187 0 011.077.48C13.43.363 24.535 3.883 35.002 11.25c10.888 7.664 16.255 17.5 11.592 20.974a7.924 7.924 0 01-4.679 1.459c.97 1.7 1.713 3.116 3.094 5.9 3.159 6.364 4.508 15.1 7.152 19.813 6.569 11.708 12.408 11.512 16.31 10.189-3.469-1.247-7.34-2.628-9.926-8.993z" fill="#003a85"/></g><g data-name="Group 47"><g data-name="Group 41"><g data-name="Group 40"><g data-name="Group 39"><g data-name="Group 38" fill="#47a01a"><g data-name="Group 36"><path data-name="Path 33" d="M42.603 75.519l-5.134 15.665h-3.315l5.134-15.665z"/><path data-name="Path 34" d="M75.643 75.519l-5.134 15.665h-3.315l5.134-15.665z"/></g><g data-name="Group 37"><path data-name="Path 35" d="M16.135 91.138l3.325-10.15h3.312l-2.688 8.2c.97.186 5.724.97 7.617-.036a3.237 3.237 0 001.137-1.693l2.121-6.475h3.311l-2.528 7.723c-.179.573-.608 2.043-3.071 2.544s-7.518.231-12.536-.113z"/><path data-name="Path 36" d="M23.577 78.538l.991-3.015h3.311l-.99 3.015z"/><path data-name="Path 37" d="M28.13 78.538l.99-3.015h3.312l-.991 3.015z"/></g></g></g></g></g><g data-name="Group 46"><g data-name="Group 44"><g data-name="Group 42"><path data-name="Path 38" d="M11.015 110.523c-1.664 0-1.5-.831-1.208-1.708l1.269-3.854h6.706l.587-1.79h-6.7l1.547-4.731h7.362l.588-1.79H10.087l-4.069 12.415c-.548 1.674-.248 3.248 2.394 3.248h7.889l.588-1.79z" fill="#003a85"/></g><path data-name="Path 39" d="M55.27 105.018l-2.391 7.3h-3.185l3.566-10.883a3.041 3.041 0 012.357 1.426 12.386 12.386 0 014.456-1.282l-.782 2.345a10.371 10.371 0 00-4.021 1.094z" fill="#003a85"/><g data-name="Group 43"><path data-name="Path 40" d="M21.876 101.43l-3.568 10.883h3.184l2.667-8.131a4.519 4.519 0 012.305-.87.91.91 0 01.836.477 1.767 1.767 0 01-.006 1.21l-2.406 7.313h3.251l2.666-8.134a4.512 4.512 0 012.306-.869.913.913 0 01.836.48 1.755 1.755 0 01-.005 1.21l-2.4 7.313h3.183s2.025-6.129 2.164-6.6a4.662 4.662 0 00.138-2.587 2.8 2.8 0 00-2.863-1.731 6.772 6.772 0 00-3.81 1.212 3.144 3.144 0 00-2.515-1.194 6.875 6.875 0 00-3.758 1.091 3.072 3.072 0 00-2.205-1.073z" fill="#003a85"/></g></g><g data-name="Group 45"><path data-name="Path 41" d="M80.218 103.301h-3.183l-1.869 5.7a2.947 2.947 0 00-.189 1.163c.033.2.186.392.735.459a9.263 9.263 0 002.409-.155l-.554 1.692a14.718 14.718 0 01-3.806.284c-3.086-.134-2.43-2.085-2.295-2.595l3.5-10.684h3.423l-.817 2.492h3.188z" fill="#003a85"/></g></g><path data-name="Path 42" d="M59.116 91.184c3.572 0 6.076-1.393 7.253-3.835 1.563-3.235-.277-5.7-2.828-6.3a7.306 7.306 0 00-8.157 3.062c-.967 1.708-1.128 3.921.433 5.234h-2.821a2.5 2.5 0 01-1.651-.356c-.261-.221-.225-.831-.049-1.357l3.969-12.113h-3.311l-3.97 12.1c-.174.536-.592 1.785-.026 2.548a3.464 3.464 0 002.9 1.014zm-.42-6.3c.88-1.816 2.6-2.675 3.794-2.089 1.167.572 1.237 2.232.377 4.189-.812 1.85-2.2 2.874-3.731 2.327-1.257-.453-1.356-2.545-.441-4.428z" fill="#47a01a"/><path data-name="Path 43" d="M67.949 112.456a3.284 3.284 0 01-2.388-.941 6.911 6.911 0 01-5.522.65c-1.752-.577-2.668-2.7-.745-4.705 2-2.084 7.073-1.94 7.745-1.94a8.393 8.393 0 00.28-.949c.036-.258.295-1.073-1.475-1.238a13.41 13.41 0 00-4.826.593l.688-2.1a23.363 23.363 0 014.272-.436c2.324 0 3.628.253 4.321 1.326a2.826 2.826 0 01.062 2.394zm-1.4-5.45c-3.693.113-4.495 1.418-4.681 1.717s-.465 1.311.27 1.767c.968.6 3.107-.363 3.488-.665l.923-2.819" fill="#003a85"/><path data-name="Path 44" d="M47.065 112.456a3.267 3.267 0 01-2.386-.941 6.91 6.91 0 01-5.522.65c-1.754-.577-2.668-2.7-.745-4.705 1.992-2.084 7.069-1.94 7.742-1.94a8.348 8.348 0 00.279-.949c.037-.258.3-1.073-1.475-1.238a13.4 13.4 0 00-4.825.593l.688-2.1a23.356 23.356 0 014.273-.436c2.324 0 3.628.253 4.321 1.326a2.817 2.817 0 01.059 2.394zm-1.4-5.45c-3.692.113-4.492 1.418-4.681 1.717s-.466 1.311.272 1.767c.968.6 3.105-.363 3.488-.665l.921-2.819" fill="#003a85"/><path data-name="Path 45" d="M41.023 94.328c-1.929.79-6.805.593-7.514.593l.6-1.842c.236 0 1.912.023 3.045-.062 2.428-.186 3.084-.536 3.856-2.9l2.992-9.132h3.315l-2.994 9.137a6.083 6.083 0 01-3.3 4.206z" fill="#47a01a"/></g></svg>