<?xml version="1.0" standalone="no"?>
<!DOCTYPE svg PUBLIC "-//W3C//DTD SVG 20010904//EN"
 "http://www.w3.org/TR/2001/REC-SVG-20010904/DTD/svg10.dtd">
<svg version="1.0" xmlns="http://www.w3.org/2000/svg"
 width="339.000000pt" height="339.000000pt" viewBox="0 0 339.000000 339.000000"
 preserveAspectRatio="xMidYMid meet">
<metadata>
Created by potrace 1.11, written by Peter Selinger 2001-2013
</metadata>
<g transform="translate(0.000000,339.000000) scale(0.100000,-0.100000)"
fill="#000000" stroke="none">
<path d="M2940 3156 c0 -8 17 -27 38 -42 66 -48 161 -154 198 -221 119 -213
102 -417 -53 -623 -61 -81 -207 -196 -323 -255 -19 -10 -37 -19 -39 -21 -1 -1
23 -33 56 -71 32 -37 72 -89 88 -115 17 -27 34 -48 39 -48 32 0 186 145 256
240 22 30 43 60 48 65 24 32 75 144 103 226 28 80 33 111 36 204 1 61 -2 128
-8 149 -6 21 -12 46 -14 55 -18 88 -110 245 -187 316 -83 78 -238 169 -238
141z"/>
<path d="M388 3145 c-2 -1 -28 -5 -58 -8 -88 -10 -169 -27 -255 -54 -75 -24
-78 -26 -55 -38 15 -8 34 -10 54 -4 148 39 426 42 606 8 495 -95 1075 -492
1269 -869 72 -140 80 -245 26 -315 -34 -45 -133 -95 -188 -95 -21 0 -37 -4
-35 -8 2 -5 42 -87 89 -183 90 -181 117 -251 194 -509 84 -279 114 -349 213
-500 73 -111 209 -247 283 -282 100 -48 183 -59 274 -34 40 11 46 15 30 21
-76 28 -188 90 -228 125 -139 123 -251 398 -243 600 5 130 35 180 118 195 79
15 136 -60 101 -132 -15 -33 -57 -63 -88 -63 -48 0 28 -82 93 -100 74 -19 170
3 223 53 129 119 146 355 43 601 -88 209 -441 645 -694 857 -35 30 -73 62 -85
73 -51 47 -313 237 -402 292 -159 99 -332 185 -483 241 -76 28 -248 78 -305
89 -22 4 -47 9 -55 11 -70 15 -178 25 -297 28 -78 1 -144 1 -145 0z"/>
<path d="M2993 3007 c42 -127 48 -255 17 -347 -32 -97 -76 -150 -178 -217 -53
-35 -158 -78 -209 -88 -15 -2 -52 -9 -82 -15 -29 -5 -86 -10 -125 -11 -39 0
-64 -3 -56 -6 8 -3 17 -9 20 -12 3 -3 41 -33 85 -65 64 -48 191 -151 215 -176
30 -31 39 -31 92 -5 156 77 275 169 340 262 152 222 133 460 -57 682 -28 32
-60 65 -71 74 -20 15 -20 11 9 -76z"/>
<path d="M298 3045 c-2 -1 -32 -5 -68 -9 -36 -3 -74 -8 -85 -10 -11 -3 -29 -5
-39 -5 -36 -2 -3 -17 94 -45 481 -140 949 -449 1284 -846 70 -82 194 -249 216
-290 32 -60 228 38 231 116 5 107 -33 207 -128 333 -123 163 -365 372 -573
494 -227 132 -505 229 -725 252 -65 7 -203 13 -207 10z"/>
<path d="M674 1854 c136 -210 338 -360 596 -442 161 -51 257 -61 472 -53 l37
1 -30 88 c-32 92 -94 215 -135 269 l-24 32 -133 -1 c-237 -1 -427 26 -653 92
-60 18 -118 35 -129 38 -19 5 -19 5 -1 -24z"/>
</g>
</svg>
